<?xml version="1.0" encoding="UTF-8" standalone="no"?>
<!-- Created with Inkscape (http://www.inkscape.org/) -->

<svg
   width="256"
   height="256"
   viewBox="0 0 67.733332 67.733335"
   version="1.1"
   id="svg1082"
   inkscape:version="1.1.2 (0a00cf5339, 2022-02-04)"
   sodipodi:docname="icon.svg"
   inkscape:export-filename="/home/arnaud/icon.png"
   inkscape:export-xdpi="96.000008"
   inkscape:export-ydpi="96.000008"
   xmlns:inkscape="http://www.inkscape.org/namespaces/inkscape"
   xmlns:sodipodi="http://sodipodi.sourceforge.net/DTD/sodipodi-0.dtd"
   xmlns="http://www.w3.org/2000/svg"
   xmlns:svg="http://www.w3.org/2000/svg">
  <sodipodi:namedview
     id="namedview1084"
     pagecolor="#ffffff"
     bordercolor="#666666"
     borderopacity="1.0"
     inkscape:pageshadow="2"
     inkscape:pageopacity="0.0"
     inkscape:pagecheckerboard="0"
     inkscape:document-units="mm"
     showgrid="false"
     units="px"
     width="793.70081px"
     showborder="true"
     inkscape:showpageshadow="false"
     inkscape:zoom="2.114039"
     inkscape:cx="82.543416"
     inkscape:cy="181.64282"
     inkscape:window-width="2560"
     inkscape:window-height="1363"
     inkscape:window-x="0"
     inkscape:window-y="0"
     inkscape:window-maximized="1"
     inkscape:current-layer="layer1" />
  <defs
     id="defs1079">
    <rect
       x="18.117955"
       y="33.217785"
       width="219.36055"
       height="199.43479"
       id="rect5943" />
  </defs>
  <g
     inkscape:label="Calque 1"
     inkscape:groupmode="layer"
     id="layer1">
    <rect
       style="fill:#4f5b93;stroke:none;stroke-width:3.70417;stroke-linecap:round;stroke-linejoin:round;stroke-miterlimit:5.5;fill-opacity:1"
       id="rect1223"
       width="67.73333"
       height="67.73333"
       x="0"
       y="0" />
    <path
       id="path14807"
       style="font-weight:bold;font-size:26.6667px;line-height:1.25;font-family:'Iosevka Term';-inkscape-font-specification:'Iosevka Term, Bold';letter-spacing:0px;word-spacing:0px;white-space:pre;fill:#ffffff;fill-opacity:1;stroke:none;stroke-width:1.11265"
       d="M 5.9316792,22.962681 V 44.770652 H 9.225018 v -8.51576 h 2.076876 c 0.553852,0 1.108062,-0.05908 1.661914,-0.177766 0.573633,-0.118684 1.097784,-0.316836 1.572514,-0.593762 0.494511,-0.296706 0.919843,-0.662437 1.275891,-1.097608 0.375829,-0.454951 0.672283,-0.939884 0.889868,-1.454176 0.237365,-0.514289 0.395784,-1.048115 0.474906,-1.601968 0.07912,-0.573632 0.11834,-1.147193 0.11834,-1.720826 0,-0.573632 -0.03922,-1.137518 -0.11834,-1.69137 -0.07912,-0.573632 -0.237541,-1.11765 -0.474906,-1.631942 -0.217585,-0.51429 -0.514039,-0.989031 -0.889868,-1.424201 -0.356048,-0.45495 -0.78138,-0.820681 -1.275891,-1.097608 -0.47473,-0.296706 -0.998881,-0.504535 -1.572514,-0.623218 -0.553852,-0.118683 -1.108062,-0.177766 -1.661914,-0.177766 z m 15.2507488,0 v 21.807971 h 3.323311 v -9.90999 h 5.459098 v -2.848403 h -5.459098 v -6.201174 h 7.150468 v -2.848404 z m 13.974857,0 v 21.807971 h 4.628658 c 0.613193,0 1.216294,-0.04993 1.80971,-0.148828 0.613193,-0.0989 1.196943,-0.276672 1.750795,-0.533818 0.553853,-0.257146 1.058138,-0.593334 1.513086,-1.008724 0.454951,-0.435168 0.820682,-0.920102 1.097608,-1.454174 0.296707,-0.553855 0.494861,-1.127413 0.593762,-1.720826 0.118684,-0.613193 0.177769,-1.226487 0.177769,-1.83968 v -8.396388 c 0,-0.613193 -0.05909,-1.216813 -0.177769,-1.810226 -0.0989,-0.613193 -0.297055,-1.186751 -0.593762,-1.720824 -0.276926,-0.553852 -0.642657,-1.038268 -1.097608,-1.453658 -0.454948,-0.43517 -0.959233,-0.781551 -1.513086,-1.038697 -0.553852,-0.257146 -1.137602,-0.434915 -1.750795,-0.533817 -0.593416,-0.0989 -1.196517,-0.148311 -1.80971,-0.148311 z m 14.835269,0 v 21.807971 h 5.221904 c 0.573632,0 1.147194,-0.03974 1.720826,-0.118856 0.573633,-0.0989 1.11765,-0.266997 1.631942,-0.504362 0.514292,-0.257146 0.989031,-0.58366 1.424202,-0.979268 0.435168,-0.39561 0.791226,-0.840809 1.068152,-1.33532 0.276926,-0.514292 0.464889,-1.058307 0.56379,-1.631942 0.118681,-0.57363 0.178284,-1.147191 0.178284,-1.720824 0,-0.534072 -0.0596,-1.058222 -0.178284,-1.572514 -0.0989,-0.534072 -0.286864,-1.028681 -0.56379,-1.48363 -0.257146,-0.454951 -0.593333,-0.850225 -1.008724,-1.186492 -0.415391,-0.336267 -0.870265,-0.613373 -1.364774,-0.830956 0.395608,-0.237365 0.741471,-0.514471 1.038178,-0.830958 0.316489,-0.336267 0.573725,-0.701998 0.77153,-1.097608 0.197805,-0.395608 0.326684,-0.81075 0.386022,-1.245918 0.07912,-0.454951 0.11834,-0.910341 0.11834,-1.365292 0,-0.514292 -0.04941,-1.028248 -0.148312,-1.542542 -0.07912,-0.534069 -0.237025,-1.028679 -0.47439,-1.483629 -0.217586,-0.47473 -0.514557,-0.900063 -0.890384,-1.275891 -0.356047,-0.395609 -0.771189,-0.711932 -1.245918,-0.949296 -0.454951,-0.237366 -0.94956,-0.40546 -1.483632,-0.504362 -0.514292,-0.0989 -1.028766,-0.148311 -1.543058,-0.148311 z M 9.225018,25.811085 h 2.076876 c 0.296707,0 0.583487,0.04941 0.860412,0.148312 0.276926,0.07912 0.524489,0.217158 0.742074,0.414961 0.217585,0.197805 0.395354,0.4255 0.533818,0.682646 0.138462,0.257146 0.247473,0.53425 0.326595,0.830956 0.0989,0.276926 0.157987,0.563708 0.177767,0.860414 0.03956,0.276927 0.05943,0.563706 0.05943,0.860412 0,0.296707 -0.01987,0.593162 -0.05943,0.889868 -0.01978,0.276926 -0.07887,0.563705 -0.177767,0.860412 -0.07912,0.276926 -0.188133,0.544356 -0.326595,0.801502 -0.138464,0.257146 -0.316233,0.484325 -0.533818,0.68213 -0.217585,0.197805 -0.465148,0.34603 -0.742074,0.444934 -0.276925,0.07912 -0.563705,0.118856 -0.860412,0.118856 H 9.225018 Z m 29.225607,0 h 1.335318 c 0.336266,0 0.672457,0.03922 1.008723,0.11834 0.33627,0.05934 0.642914,0.168352 0.91984,0.326596 0.296709,0.158242 0.553945,0.366069 0.771531,0.623215 0.237365,0.237366 0.425325,0.513953 0.56379,0.830443 0.138464,0.296703 0.237283,0.613544 0.296621,0.949811 0.05934,0.336267 0.08888,0.672457 0.08888,1.008724 v 8.396388 c 0,0.336267 -0.02954,0.672971 -0.08888,1.00924 -0.05934,0.336267 -0.15816,0.662263 -0.296621,0.978752 -0.138465,0.296706 -0.326425,0.57381 -0.56379,0.830956 -0.217586,0.237365 -0.474822,0.435001 -0.771531,0.593246 -0.276926,0.158244 -0.58357,0.276929 -0.91984,0.35605 -0.336266,0.05934 -0.672457,0.0894 -1.008723,0.0894 h -1.335318 z m 14.835269,0 h 1.928564 c 0.37583,0 0.731885,0.08863 1.068152,0.266651 0.356047,0.158242 0.642829,0.395613 0.860412,0.7121 0.217585,0.296706 0.365813,0.632897 0.444934,1.008724 0.07912,0.37583 0.118856,0.751753 0.118856,1.12758 0,0.37583 -0.03973,0.751753 -0.118856,1.12758 -0.07912,0.375828 -0.227349,0.722209 -0.444934,1.038696 -0.197803,0.316489 -0.474393,0.563533 -0.83044,0.741558 -0.356047,0.158242 -0.722294,0.237194 -1.098124,0.237194 h -1.928564 z m 0,9.108489 h 1.928564 c 0.454951,0 0.900149,0.07947 1.33532,0.23771 0.454951,0.138464 0.830874,0.385508 1.12758,0.741558 0.296707,0.336267 0.504018,0.732057 0.6227,1.187008 0.138462,0.435168 0.20774,0.879851 0.20774,1.334802 0,0.454948 -0.06928,0.910341 -0.20774,1.36529 -0.118682,0.454951 -0.336185,0.850225 -0.652674,1.186492 -0.296704,0.336267 -0.662438,0.583829 -1.097606,0.742074 -0.435171,0.138462 -0.880369,0.207738 -1.33532,0.207738 h -1.928564 z" />
  </g>
</svg>
